<svg width="634" height="634" viewBox="0 0 634 634" fill="none" xmlns="http://www.w3.org/2000/svg">
  <path d="M297.004 633.479C255.642 630.447 214.655 620.133 177.466 601.601C155.193 590.87 134.402 577.16 115.252 561.552C66.8681 521.76 30.6694 467.287 13.1443 407.099C6.17458 383.773 2.0016 359.606 0.571052 335.308C-0.329488 313.937 0.0293686 292.422 3.46533 271.268C9.01058 233.838 21.0822 197.349 39.4953 164.269C74.0539 100.95 131.325 50.5802 198.169 23.662C262.821 -2.53838 336.236 -6.64074 403.293 12.7311C462.201 29.403 515.94 63.7032 555.932 110.066C586.539 145.322 609.153 187.454 621.571 232.471C639.874 297.591 636.372 368.573 611.814 431.596C594.445 476.809 566.314 517.733 530.661 550.469C499.318 579.436 461.935 601.741 421.735 615.994C395.979 624.93 369.095 630.807 341.897 632.856C326.95 633.595 311.964 633.839 297.004 633.479ZM329.081 372.907C350.097 368.708 367.978 351.461 372.361 330.384C376.647 311.86 370.693 291.419 357.068 278.148C346.061 267.081 330.255 261.345 314.728 262.179C293.001 262.726 273.097 277.96 265.353 298.016C261.143 308.838 260.86 320.989 263.437 332.228C268.804 352.954 286.882 369.829 308.084 373.266C315.024 374.556 322.156 374.007 329.081 372.907Z" fill="#D38D5F"/>
  <path d="M253.284 585.931C233.999 583.421 216.754 570.8 207.509 553.828C196.685 535.057 193.833 512.912 183.316 494.014C176.823 483.243 166.961 474.87 156.352 468.318C136.489 456.762 115.047 448.126 95.465 436.068C80.4287 426.446 66.22 413.613 60.1738 396.342C55.6373 382.73 57.195 367.605 62.7347 354.52C69.5068 337.228 79.9777 320.798 81.1375 301.81C82.5754 279.796 75.1502 258.641 71.0489 237.296C67.8688 221.193 66.1654 203.701 72.9058 188.239C78.0252 175.621 88.5527 166.491 98.6032 157.807C106.737 150.84 114.445 143.019 119.113 133.239C126.321 119.428 130.562 103.533 142.007 92.364C150.465 83.6558 162.708 80.0089 174.542 79.2805C186.379 78.2914 198.385 79.072 210.097 76.8444C223.511 73.7309 233.854 63.7471 246.638 59.0724C253.252 56.4364 260.927 55.7153 266.237 50.4952C277.181 42.0704 291.394 39.4028 304.923 39.57C314.728 39.6688 324.585 43.8958 330.602 51.811C336.967 59.305 339.205 69.1551 344.422 77.3238C349.335 83.8117 356.408 88.8521 364.27 91.0596C378.308 94.0484 392.519 90.1005 406.223 87.1803C420.793 83.9453 436.006 81.3166 450.869 84.0958C461.947 86.5256 472.086 94.4192 475.589 105.441C480.942 121.274 477.649 138.598 482.972 154.45C486.117 164.821 494.511 172.554 503.68 177.78C518.637 186.409 536.003 191.555 548.387 204.136C555.775 211.322 561.124 221.047 561.209 231.54C562.137 246.642 555.991 260.803 551.085 274.735C546.737 286.785 542.994 299.735 545.391 312.63C547.296 324.121 553.782 334.087 559.049 344.254C566.186 357.262 573.155 371.249 572.934 386.462C573.276 397.339 570.121 408.286 563.674 417.09C555.21 429.269 541.804 436.605 528.491 442.338C517.256 447.381 505.29 452.719 497.893 463.049C488.95 475.198 484.049 489.637 477.305 503.008C468.96 520.439 457.925 537.235 441.771 548.351C426.812 559.074 408.395 563.972 390.16 564.529C374.125 565.286 358.004 564.604 342.031 566.426C328.826 568.155 316.499 573.493 303.963 577.701C288.978 582.969 273.266 587.54 257.202 586.266C255.893 586.183 254.587 586.072 253.284 585.931ZM304.795 428.747C314.692 422.576 323.015 414.021 333.712 409.107C345.545 403.183 358.838 401.462 371.854 400.286C380.298 399.496 388.979 397.427 395.579 391.797C406.199 383.448 412.331 370.376 413.645 357.082C415.305 345.6 415.809 333.557 421.437 323.122C425.011 315.731 430.31 309.323 433.935 301.977C435.889 297.555 433.014 293.221 429.492 290.691C420.136 282.42 408.611 275.872 402.601 264.473C397.113 254.588 396.63 243.052 393.554 232.387C392.127 227.728 389.421 222.868 384.8 220.834C380.41 220.166 376.417 222.962 372.201 223.78C363.277 226.704 354.044 229.386 344.548 228.776C340.925 229.197 337.815 226.942 334.508 225.814C326.033 222.355 317.993 217.761 311.137 211.653C304.579 206.11 296.875 201.096 288.024 200.787C275.186 200.038 262.605 204.72 251.67 211.1C241.329 217.381 231.975 226.268 227.38 237.653C224.488 245.422 226.701 253.723 228.691 261.404C230.784 269.16 231.706 277.485 229.193 285.262C224.661 300.764 213.82 313.454 208.919 328.822C205.951 337.81 204.849 348.615 210.624 356.763C216.813 365.602 227.428 369.283 236.136 374.991C244.736 380.054 252.287 386.851 257.928 395.106C265.888 406.022 272.392 418.86 284.336 426.048C290.356 429.609 298.137 432.218 304.795 428.747ZM329.073 187.05C329.927 188.109 328.085 187.551 329.073 187.05Z" fill="#FFD5D5"/>
  <path d="M366.525 593.557C361.351 591.2 359.937 585.179 359.589 580.025C358.063 568.841 356.895 557.488 357.895 546.209C359.016 539.934 367.365 536.426 372.432 540.516C376.141 543.276 376.901 548.186 376.58 552.505C376.834 563.299 380.246 573.709 380.994 584.44C380.919 590.624 374.596 595.979 368.462 594.257C367.793 594.095 367.142 593.862 366.525 593.557ZM228.494 560.447C217.34 558.661 205.941 558.109 194.999 555.186C189.464 553.109 186.925 545.389 191.008 540.779C194.164 536.577 199.704 536.973 204.305 537.711C216.056 538.893 227.91 539.113 239.61 540.732C244.57 541.906 248.955 546.687 248.031 552.019C247.693 557.51 242.19 560.961 237.065 560.948C234.199 561.139 231.337 560.771 228.494 560.447ZM289.311 483.641C283.637 481.87 281.484 474.252 284.657 469.431C288.882 461.243 295.289 454.484 301.045 447.38C304.25 443.344 310.407 441.003 315.013 444.068C319.397 446.85 321.085 453.377 317.823 457.644C312.9 465.563 305.695 471.723 300.494 479.451C298.17 483.317 293.622 485.157 289.311 483.641ZM121.567 479.646C116.325 477.679 114.656 471.09 116.882 466.286C119.79 457.006 123.84 448.081 128.514 439.568C131.136 434.909 137.392 432.293 142.27 435.072C147.202 437.367 148.514 443.767 146.38 448.438C142.448 457.348 137.21 465.642 133.641 474.729C131.848 479.303 126.058 481.822 121.567 479.646ZM496.62 461.387C491.022 459.689 487.754 452.418 491.166 447.365C494.332 442.473 500.576 442.474 505.757 442.119C514.328 441.456 522.946 440.503 531.545 441.164C538.397 442.15 541.742 451.174 537.598 456.549C535.362 459.952 531.175 461.165 527.294 460.949C517.078 461.433 506.845 461.702 496.62 461.387ZM492.274 323.2C486.977 320.345 486.752 313.528 487.692 308.301C488.918 299.719 491.37 291.348 493.983 283.103C495.412 278.216 500.422 274.493 505.558 275.545C511.42 276.449 515.593 283.081 513.401 288.719C510.554 298.398 507.047 307.932 505.376 317.915C504.163 322.737 498.736 325.287 494.122 323.9C493.482 323.737 492.859 323.506 492.274 323.2ZM64.4706 279.574C58.2616 276.949 57.7007 266.86 63.7548 263.713C71.391 258.676 80.2328 255.964 88.6102 252.454C92.7682 250.956 97.7062 248.649 101.858 251.434C107.061 254.278 108.704 261.875 104.736 266.421C101.627 270.103 96.5321 270.774 92.3175 272.601C85.4693 274.8 78.816 277.546 72.0202 279.878C69.5718 280.594 66.783 280.882 64.4706 279.574ZM382.634 200.612C376.894 199.153 374.297 192.601 375.003 187.155C375.205 174.36 375.506 161.531 376.926 148.806C377.204 144.652 380.564 141.086 384.763 140.885C389.438 140.256 394.526 143.494 394.909 148.43C396.49 161.053 395.219 173.961 397.844 186.483C398.873 191.236 395.791 195.726 391.809 198.03C389.196 199.81 385.866 201.443 382.634 200.612ZM190.484 182.647C184.462 180.303 181.236 174.28 176.879 169.892C171.589 163.686 165.85 157.604 162.298 150.187C160.226 144.558 164.654 137.652 170.785 137.682C176.435 137.459 179.491 142.776 182.712 146.501C189.024 154.1 196.802 160.447 202.461 168.585C205.915 174.822 200.604 183.544 193.431 183.207C192.426 183.192 191.422 183.01 190.484 182.647ZM325.907 96.878C319.645 95 316.895 86.4498 321.011 81.3075C325.125 74.7298 330.522 69.0848 335.434 63.1133C338.638 59.6842 341.695 55.7209 346.015 53.6896C352.436 51.4139 360.055 58.045 357.937 64.742C356.209 69.4046 352.211 72.7205 349.493 76.7914C345.234 82.1085 341.551 87.8883 337.116 93.0514C334.277 95.9843 330.003 97.8944 325.907 96.878Z" fill="#DE8787"/>
  <path d="M205.572 531.715C200.842 529.451 199.094 522.963 201.757 518.511C205.846 508.245 208.176 497.401 211.772 486.969C214.098 481.975 220.367 478.873 225.533 481.506C230.296 483.368 232.262 488.804 231.216 493.549C230.092 499.803 227.378 505.628 225.481 511.666C223.029 518.125 220.805 524.972 216.355 530.362C213.493 533.101 209.051 533.268 205.572 531.715ZM65.4162 425.051C57.695 423.488 49.5961 422.795 42.4451 419.273C36.6185 415.411 37.5459 404.981 44.4381 402.823C50.2846 400.895 56.2097 403.848 62.0885 404.113C68.9935 405.032 76.1497 404.928 82.8175 407.099C87.9496 409.127 91.3609 415.483 88.7511 420.681C86.5126 425.456 80.7638 427.271 75.8325 426.486C72.3312 426.246 68.8823 425.566 65.4162 425.051ZM482.556 413.963C476.462 413.366 471.602 406.489 474.155 400.636C475.819 396.085 480.687 393.49 485.379 393.654C494.299 393.095 503.252 392.95 512.12 391.764C516.867 391.163 522.177 394.073 522.819 399.103C523.807 404.131 520.458 409.637 515.277 410.499C506.146 413.147 496.544 413.311 487.137 414.164C485.609 414.224 484.071 414.191 482.556 413.963ZM101.122 344.453C95.3204 341.879 93.3952 332.503 99.1517 328.827C109.302 320.843 121.326 315.52 130.937 306.796C135.131 303.378 141.363 304.296 145.583 307.182C150.177 309.317 152.907 315.388 150.219 319.99C147.276 325.935 140.607 328.207 135.206 331.341C127.301 335.338 119.257 339.061 111.477 343.298C108.293 344.816 104.547 345.784 101.122 344.453ZM538.531 308.717C533.312 306.351 532.213 300.143 529.705 295.568C525.202 285.753 519.843 276.295 516.165 266.123C514.471 259.86 519.748 252.544 526.464 253.242C531.631 253.556 535.588 257.78 537.219 262.444C542.025 272.857 546.489 283.447 550.422 294.219C551.898 298.148 552.392 303.093 549.235 306.366C546.686 309.375 542.099 310.536 538.531 308.717ZM415.215 262.614C409.28 261.429 402.482 261.535 397.69 257.33C392.939 252.447 395.077 242.893 401.848 241.101C407.285 239.739 412.841 241.652 418.208 242.516C423.797 243.717 429.48 244.394 435.146 245.057C440.562 246.083 444.044 252.159 442.121 257.344C440.821 262.354 435.445 263.98 430.849 263.91C425.603 264.145 420.406 263.225 415.215 262.614ZM455.204 161.662C448.837 159.056 447.879 148.923 453.871 145.346C460.145 141.012 466.649 136.953 472.252 131.726C476.58 128.157 480.615 123.856 485.875 121.691C492.367 119.599 499.841 125.47 499.024 132.331C498.886 136.544 495.834 139.715 492.622 142.043C484.21 148.809 475.608 155.508 466.009 160.517C462.71 162.166 458.754 163.124 455.204 161.662Z" fill="#FF9955"/>
  <path d="M293.976 599.46C288.46 597.638 286.137 591.777 282.82 587.51C279.892 583.076 276.548 578.778 274.621 573.795C273.109 568.247 277.693 561.702 283.699 562.34C289.011 562.536 291.912 567.379 294.808 571.118C298.823 576.444 303.227 581.679 305.909 587.828C307.744 594.632 300.695 601.316 293.976 599.46ZM420.051 473.354C410.625 470.156 400.86 467.701 391.927 463.24C387.378 460.414 385.618 453.533 389.413 449.373C393.057 445.103 399.195 446.155 403.854 447.831C414.511 451.351 425.745 453.005 436.187 457.173C441.566 460.087 443.093 468.12 438.75 472.596C433.752 477.856 425.946 475.255 420.051 473.354ZM187.11 433.687C182.091 431.424 180.109 424.671 182.802 419.935C186.549 411.231 191.85 403.316 196.665 395.184C199.12 391.683 201.332 387.29 205.614 385.799C212.222 383.741 219.593 390.081 218.343 396.958C217.589 401.107 214.468 404.239 212.482 407.839C207.632 415.332 202.498 422.657 198.159 430.468C195.699 433.784 190.965 435.149 187.11 433.687ZM210.494 283.807C205.545 281.37 204.04 274.052 207.913 270.002C214.53 260.644 222.212 252.099 229.532 243.297C232.587 239.478 237.376 236.348 242.456 237.481C248.168 238.423 250.991 245.204 249.084 250.332C247.495 255.019 243.366 258.164 240.36 261.922C234.021 268.794 227.64 275.644 221.23 282.439C218.346 285.017 213.907 285.748 210.494 283.807ZM147.358 255.199C142.267 252.971 140.862 247.259 139.368 242.453C135.888 231.848 132.269 221.257 129.522 210.439C128.724 204.343 135.298 198.814 141.172 200.865C145.958 202.111 147.521 207.063 149.137 211.129C153.452 221.707 157.815 232.317 161.084 243.267C162.327 248.187 159.79 253.811 154.762 255.306C152.394 256.169 149.688 256.218 147.358 255.199ZM481.975 237.13C476.029 236.059 472.821 228.892 475.033 223.486C477.313 215.984 480.908 208.97 483.847 201.717C485.786 197.69 487.35 193.223 490.57 190.025C495.948 185.677 505.584 190.201 504.869 197.347C504.137 202.965 501.761 208.224 500.028 213.59C497.773 219.645 495.644 225.771 493.09 231.699C490.921 235.489 486.383 238.126 481.975 237.13ZM239.834 152.729C234.789 151.001 231.872 144.435 234.727 139.721C238.272 132.333 243.552 125.964 248.443 119.45C251.079 115.533 256.249 113.274 260.749 115.21C265.642 116.842 268.321 122.756 266.203 127.496C263.521 132.783 259.401 137.189 255.945 141.98C253.16 145.34 250.615 149.025 247.256 151.823C245.078 153.187 242.273 153.621 239.834 152.729Z" fill="#AFDDE9"/>
  <path d="M319.182 533.848C313.266 532.677 309.596 525.172 313.009 519.968C316.173 515.778 319.951 512.071 323.387 508.093C329.633 501.19 335.958 494.35 342.668 487.894C347.47 484.893 354.649 482.619 359.43 486.833C363.419 490.115 363.989 496.495 360.508 500.378C356.134 505.419 350.662 509.377 345.99 514.143C339.252 520.456 332.857 527.226 325.431 532.739C323.592 533.855 321.299 534.586 319.182 533.848ZM149.508 401.392C144.645 399.048 142.578 393.576 142.37 388.481C141.416 381.151 140.061 373.687 140.931 366.297C142.3 360.486 149.814 357.259 154.83 360.725C159.806 363.614 159.647 369.711 160.472 374.673C161.329 380.973 162.728 387.32 162.494 393.686C161.418 399.232 155.06 404.009 149.508 401.392ZM426.692 377.453C420.554 375.419 417.031 369.544 412.529 365.311C406.67 358.897 400.475 352.641 395.805 345.282C393.53 340.693 395.141 334.288 400.102 332.232C404.436 329.913 409.357 332.233 412.102 335.849C420.252 344.619 429.187 352.628 437.184 361.54C441.569 366.68 438.22 375.368 431.954 377.181C430.275 377.768 428.42 377.916 426.692 377.453ZM537.73 230.59C532.259 228.273 530.699 219.998 535.252 216.029C541.554 209.396 549.265 204.337 556.614 198.961C560.979 195.655 568.002 195.102 571.755 199.631C576.059 204.442 573.682 212.483 568.333 215.486C560.993 220.671 553.493 225.64 546.03 230.633C543.479 231.954 540.232 232.122 537.73 230.59ZM51.7144 224.018C45.0397 221.23 44.8551 210.342 51.4301 207.298C61.3365 201.289 71.7442 196.146 82.1209 191.008C86.3497 188.599 91.9279 188.113 96.0177 191.088C101.548 194.92 100.5 203.886 95.1383 207.388C88.7132 211.525 81.3806 213.925 74.5532 217.29C69.0943 219.658 63.7774 222.432 58.1918 224.463C56.0548 224.942 53.7433 224.909 51.7144 224.018ZM279.256 196.691C273.327 194.205 272.13 184.933 277.61 181.3C284.822 175.424 292.536 170.181 300.217 164.941C303.896 162.665 307.829 159.314 312.48 160.595C318.538 161.667 322.196 168.98 319.442 174.495C316.766 179.896 310.656 182.109 306.001 185.442C299.504 189.618 292.969 193.759 286.145 197.385C283.898 198.203 281.303 197.907 279.256 196.691ZM251.78 98.1641C245.822 95.7538 242.719 89.7084 238.601 85.1578C232.651 77.6047 226.394 70.108 222.223 61.3813C219.881 56.3862 221.987 49.5315 227.427 47.71C231.578 46.05 236.554 47.9373 238.677 51.8625C245.338 63.5479 255.975 72.1923 263.714 83.0811C267.049 88.6869 264.035 97.3779 257.26 98.486C255.448 98.8621 253.535 98.7588 251.78 98.1641Z" fill="#FFE680"/>
</svg>
