<svg width="32" height="32" viewBox="0 0 32 32" fill="none" xmlns="http://www.w3.org/2000/svg">
<path d="M27.3 18H19C18.7348 18 18.4804 17.8946 18.2929 17.7071C18.1054 17.5196 18 17.2652 18 17C18 16.7348 18.1054 16.4804 18.2929 16.2929C18.4804 16.1054 18.7348 16 19 16H27.83C27.9424 15.3393 27.9993 14.6702 28 14C28 13.7348 27.8946 13.4804 27.7071 13.2929C27.5196 13.1054 27.2652 13 27 13H5C4.73478 13 4.48043 13.1054 4.29289 13.2929C4.10536 13.4804 4 13.7348 4 14C4.00208 16.3959 4.72132 18.7364 6.0651 20.72C7.40889 22.7036 9.3157 24.2395 11.54 25.13C11.3799 25.2129 11.2453 25.3375 11.1502 25.4906C11.0551 25.6438 11.0032 25.8198 11 26C11 26.2652 11.1054 26.5196 11.2929 26.7071C11.4804 26.8946 11.7348 27 12 27H20C20.2652 27 20.5196 26.8946 20.7071 26.7071C20.8946 26.5196 21 26.2652 21 26C20.9968 25.8198 20.9449 25.6438 20.8498 25.4906C20.7547 25.3375 20.6201 25.2129 20.46 25.13C22.0409 24.4952 23.4685 23.531 24.6479 22.3016C25.8272 21.0723 26.7313 19.6059 27.3 18Z" fill="#E5E5E5"/>
<path d="M15.45 12C15.1848 12 14.9304 11.8946 14.7429 11.7071C14.5554 11.5196 14.45 11.2652 14.45 11C14.4295 9.99729 14.6453 9.00383 15.08 8.1C15.4089 7.44998 15.5704 6.72819 15.55 6C15.55 5.73478 15.6554 5.48043 15.8429 5.29289C16.0304 5.10536 16.2848 5 16.55 5C16.8152 5 17.0696 5.10536 17.2571 5.29289C17.4446 5.48043 17.55 5.73478 17.55 6C17.5705 7.00271 17.3547 7.99617 16.92 8.9C16.5911 9.55002 16.4296 10.2718 16.45 11C16.45 11.1313 16.4241 11.2614 16.3739 11.3827C16.3236 11.504 16.25 11.6142 16.1571 11.7071C16.0643 11.8 15.954 11.8736 15.8327 11.9239C15.7114 11.9741 15.5813 12 15.45 12Z" fill="#464646"/>
<path d="M11.45 12C11.1848 12 10.9304 11.8946 10.7429 11.7071C10.5554 11.5196 10.45 11.2652 10.45 11C10.4295 9.99729 10.6453 9.00383 11.08 8.1C11.4089 7.44998 11.5704 6.72819 11.55 6C11.55 5.73478 11.6554 5.48043 11.8429 5.29289C12.0304 5.10536 12.2848 5 12.55 5C12.8152 5 13.0696 5.10536 13.2571 5.29289C13.4446 5.48043 13.55 5.73478 13.55 6C13.5705 7.00271 13.3547 7.99617 12.92 8.9C12.5911 9.55002 12.4296 10.2718 12.45 11C12.45 11.2652 12.3446 11.5196 12.1571 11.7071C11.9696 11.8946 11.7152 12 11.45 12Z" fill="#464646"/>
<path d="M19.45 12C19.1848 12 18.9304 11.8946 18.7429 11.7071C18.5554 11.5196 18.45 11.2652 18.45 11C18.4295 9.99729 18.6453 9.00383 19.08 8.1C19.4089 7.44998 19.5704 6.72819 19.55 6C19.55 5.73478 19.6554 5.48043 19.8429 5.29289C20.0304 5.10536 20.2848 5 20.55 5C20.8152 5 21.0696 5.10536 21.2571 5.29289C21.4446 5.48043 21.55 5.73478 21.55 6C21.5705 7.00271 21.3547 7.99617 20.92 8.9C20.5911 9.55002 20.4296 10.2718 20.45 11C20.45 11.1313 20.4241 11.2614 20.3739 11.3827C20.3236 11.504 20.25 11.6142 20.1571 11.7071C20.0643 11.8 19.954 11.8736 19.8327 11.9239C19.7114 11.9741 19.5813 12 19.45 12Z" fill="#464646"/>
</svg>
