<svg width="32" height="32" viewBox="0 0 32 32" fill="none" xmlns="http://www.w3.org/2000/svg">
<path d="M15.88 13C15.6148 13 15.3604 12.8946 15.1729 12.7071C14.9854 12.5196 14.88 12.2652 14.88 12C14.8621 11.5864 14.9025 11.1723 15 10.77C15.12 10.2637 15.12 9.73632 15 9.23C14.9025 8.82766 14.8621 8.4136 14.88 8C14.8621 7.5864 14.9025 7.17234 15 6.77C15.074 6.5198 15.1143 6.26085 15.12 6C15.12 5.73478 15.2254 5.48043 15.4129 5.29289C15.6004 5.10536 15.8548 5 16.12 5C16.3852 5 16.6396 5.10536 16.8271 5.29289C17.0146 5.48043 17.12 5.73478 17.12 6C17.1379 6.4136 17.0975 6.82766 17 7.23C16.9361 7.48157 16.9059 7.74049 16.91 8C16.9051 8.25626 16.9354 8.51198 17 8.76C17.0967 9.16588 17.137 9.58312 17.12 10C17.1379 10.4136 17.0975 10.8277 17 11.23C16.9361 11.4816 16.9059 11.7405 16.91 12C16.9101 12.1339 16.8832 12.2664 16.8311 12.3897C16.779 12.5131 16.7026 12.6247 16.6066 12.7179C16.5105 12.8112 16.3967 12.8842 16.2719 12.9327C16.1471 12.9811 16.0138 13.004 15.88 13Z" fill="#BA7943"/>
<path d="M19.92 12C19.6548 12 19.4004 11.8946 19.2129 11.7071C19.0253 11.5196 18.92 11.2652 18.92 11C18.9144 10.6963 18.9514 10.3934 19.03 10.1C19.049 9.9573 19.049 9.8127 19.03 9.67C19.0495 9.52398 19.0495 9.37602 19.03 9.23C18.9514 8.93661 18.9144 8.63367 18.92 8.33C18.9144 8.02633 18.9514 7.72339 19.03 7.43C19.049 7.2873 19.049 7.1427 19.03 7C19.03 6.73478 19.1353 6.48043 19.3229 6.29289C19.5104 6.10536 19.7648 6 20.03 6C20.2952 6 20.5495 6.10536 20.7371 6.29289C20.9246 6.48043 21.03 6.73478 21.03 7C21.0355 7.30367 20.9985 7.60661 20.92 7.9C20.901 8.0427 20.901 8.1873 20.92 8.33C20.9005 8.47602 20.9005 8.62398 20.92 8.77C20.9993 9.06323 21.0364 9.36629 21.03 9.67C21.0355 9.97367 20.9985 10.2766 20.92 10.57C20.9004 10.7127 20.9004 10.8573 20.92 11C20.92 11.2652 20.8146 11.5196 20.6271 11.7071C20.4396 11.8946 20.1852 12 19.92 12Z" fill="#BA7943"/>
<path d="M11.92 12C11.6548 12 11.4004 11.8946 11.2129 11.7071C11.0253 11.5196 10.92 11.2652 10.92 11C10.9144 10.6963 10.9514 10.3934 11.03 10.1C11.0657 9.95953 11.0825 9.81492 11.08 9.67C11.0733 9.5204 11.0464 9.37239 11 9.23C10.9214 8.93661 10.8844 8.63367 10.89 8.33C10.8844 8.02633 10.9214 7.72339 11 7.43C11.0458 7.29091 11.0728 7.14628 11.08 7C11.08 6.73478 11.1853 6.48043 11.3729 6.29289C11.5604 6.10536 11.8148 6 12.08 6C12.3452 6 12.5996 6.10536 12.7871 6.29289C12.9746 6.48043 13.08 6.73478 13.08 7C13.0855 7.30367 13.0485 7.60661 12.97 7.9C12.9343 8.04047 12.9175 8.18508 12.92 8.33C12.9169 8.47824 12.9337 8.62622 12.97 8.77C13.0493 9.06323 13.0864 9.36629 13.08 9.67C13.0855 9.97367 13.0485 10.2766 12.97 10.57C12.9337 10.7104 12.9168 10.8551 12.92 11C12.92 11.2652 12.8146 11.5196 12.6271 11.7071C12.4396 11.8946 12.1852 12 11.92 12Z" fill="#BA7943"/>
<path d="M22 15.13V18C22 18.2652 21.8946 18.5196 21.7071 18.7071C21.5196 18.8946 21.2652 19 21 19C20.7348 19 20.4804 18.8946 20.2929 18.7071C20.1053 18.5196 20 18.2652 20 18V14.5C19.0176 14.241 18.0133 14.0737 17 14V19C17 19.2652 16.8946 19.5196 16.7071 19.7071C16.5196 19.8946 16.2652 20 16 20C15.7348 20 15.4804 19.8946 15.2929 19.7071C15.1053 19.5196 15 19.2652 15 19V14C13.9879 14.0606 12.9837 14.2145 12 14.46V18C12 18.2652 11.8946 18.5196 11.7071 18.7071C11.5196 18.8946 11.2652 19 11 19C10.7348 19 10.4804 18.8946 10.2929 18.7071C10.1053 18.5196 9.99998 18.2652 9.99998 18V15.13C5.93998 16.71 2.99998 19.75 2.99998 23C2.97782 23.4805 3.05521 23.9603 3.22729 24.4095C3.39938 24.8586 3.66245 25.2673 3.99998 25.61C5.26998 26.85 7.48998 27.08 10.33 27.08C11.14 27.08 12 27.08 12.9 27.08C14.9 27.08 17.11 27.08 19.08 27.08C23.14 27.18 26.35 27.24 27.98 25.65C28.3262 25.3044 28.596 24.89 28.7717 24.4334C28.9474 23.9769 29.0252 23.4885 29 23C29 19.75 26.06 16.71 22 15.13Z" fill="#E59A51"/>
</svg>
