<svg width="32" height="32" viewBox="0 0 32 32" fill="none" xmlns="http://www.w3.org/2000/svg">
<path d="M24 20H8C7.20435 20 6.44129 20.3161 5.87868 20.8787C5.31607 21.4413 5 22.2044 5 23C5 23.7956 5.31607 24.5587 5.87868 25.1213C6.44129 25.6839 7.20435 26 8 26H24C24.7956 26 25.5587 25.6839 26.1213 25.1213C26.6839 24.5587 27 23.7956 27 23C27 22.2044 26.6839 21.4413 26.1213 20.8787C25.5587 20.3161 24.7956 20 24 20Z" fill="#EFBFD9"/>
<path d="M24 12H23V11.28C22.392 11.2889 21.7889 11.1697 21.23 10.93C20.9174 10.7835 20.5751 10.7117 20.23 10.72C19.8848 10.7106 19.5422 10.7825 19.23 10.93C18.6675 11.1693 18.0612 11.2885 17.45 11.28C16.842 11.2889 16.2389 11.1697 15.68 10.93C15.3679 10.7821 15.0252 10.7102 14.68 10.72C14.3348 10.7106 13.9922 10.7825 13.68 10.93C13.1211 11.1697 12.518 11.2889 11.91 11.28C11.255 11.3094 10.602 11.1898 10 10.93C9.68741 10.7835 9.34509 10.7117 9 10.72V12H8C7.73478 12 7.48043 12.1054 7.29289 12.2929C7.10536 12.4804 7 12.7348 7 13V14.64C7.74575 14.6267 8.48569 14.7733 9.17 15.07C9.61863 15.2735 10.1075 15.3726 10.6 15.36C11.0822 15.3665 11.56 15.2675 12 15.07C12.6843 14.7733 13.4243 14.6267 14.17 14.64C14.9157 14.6267 15.6557 14.7733 16.34 15.07C16.7908 15.2612 17.2754 15.3597 17.765 15.3597C18.2546 15.3597 18.7392 15.2612 19.19 15.07C20.5799 14.4966 22.1401 14.4966 23.53 15.07C23.9786 15.2735 24.4675 15.3726 24.96 15.36V13C24.9602 12.7416 24.8604 12.4931 24.6814 12.3067C24.5024 12.1202 24.2582 12.0103 24 12Z" fill="#FF61B0"/>
<path d="M21.4 16.64C20.9107 16.6272 20.425 16.7264 19.98 16.93C19.2957 17.2267 18.5557 17.3734 17.81 17.36C17.0641 17.3746 16.3239 17.2279 15.64 16.93C15.1914 16.7265 14.7025 16.6274 14.21 16.64C13.7175 16.6263 13.2283 16.7255 12.78 16.93C12.0925 17.2278 11.3491 17.3745 10.6 17.36C9.85425 17.3734 9.11431 17.2267 8.43 16.93C7.98169 16.7255 7.49255 16.6263 7 16.64V21C7 21.2652 7.10536 21.5196 7.29289 21.7071C7.48043 21.8947 7.73478 22 8 22H24C24.2652 22 24.5196 21.8947 24.7071 21.7071C24.8946 21.5196 25 21.2652 25 21V17.36C24.2543 17.3734 23.5143 17.2267 22.83 16.93C22.3817 16.7255 21.8925 16.6263 21.4 16.64Z" fill="#FF61B0"/>
<path d="M11.8 9.28C12.145 9.28726 12.4871 9.21542 12.8 9.07C13.3585 8.82918 13.9619 8.70987 14.57 8.72C15.1779 8.71227 15.7808 8.83148 16.34 9.07C16.664 9.20836 17.0127 9.27969 17.365 9.27969C17.7173 9.27969 18.066 9.20836 18.39 9.07C18.9525 8.83068 19.5588 8.71147 20.17 8.72C20.7982 8.70249 21.4226 8.82192 22 9.07C22.3122 9.21751 22.6548 9.28945 23 9.28V7C23 6.73478 22.8946 6.48043 22.7071 6.29289C22.5196 6.10536 22.2652 6 22 6H10C9.73478 6 9.48043 6.10536 9.29289 6.29289C9.10536 6.48043 9 6.73478 9 7V8.72C9.60803 8.71109 10.2111 8.83034 10.77 9.07C11.0913 9.2222 11.4447 9.29426 11.8 9.28Z" fill="#FF61B0"/>
</svg>
