<svg width="32" height="32" viewBox="0 0 32 32" fill="none" xmlns="http://www.w3.org/2000/svg">
<path d="M26 22H23.49L18.12 16.64C18.0303 16.5353 17.92 16.4503 17.7959 16.3903C17.6719 16.3302 17.5367 16.2965 17.399 16.2912C17.2613 16.2859 17.124 16.3091 16.9956 16.3594C16.8673 16.4096 16.7508 16.4859 16.6533 16.5833C16.5558 16.6808 16.4796 16.7973 16.4293 16.9257C16.379 17.054 16.3558 17.1913 16.3612 17.329C16.3665 17.4668 16.4002 17.6019 16.4602 17.726C16.5203 17.85 16.6053 17.9603 16.71 18.05L22 23.34V26C22 26.2652 22.1053 26.5196 22.2928 26.7071C22.4804 26.8946 22.7347 27 23 27C23.2652 27 23.5195 26.8946 23.7071 26.7071C23.8946 26.5196 24 26.2652 24 26V24H26C26.2652 24 26.5195 23.8946 26.7071 23.7071C26.8946 23.5196 27 23.2652 27 23C27 22.7348 26.8946 22.4804 26.7071 22.2929C26.5195 22.1054 26.2652 22 26 22Z" fill="#E6E7E9"/>
<path d="M18.41 12.13C17.7354 10.1663 16.6745 8.35739 15.29 6.81C14.1526 5.75016 12.6482 5.17317 11.0938 5.2006C9.53939 5.22802 8.05631 5.85772 6.95701 6.95702C5.8577 8.05633 5.22801 9.53941 5.20058 11.0938C5.17316 12.6482 5.75014 14.1526 6.80998 15.29C8.35998 16.85 12.39 19.07 15.43 19.07C15.9192 19.1009 16.4097 19.0328 16.8719 18.8695C17.3342 18.7063 17.7587 18.4513 18.12 18.12C19.29 17 19.39 14.88 18.41 12.13Z" fill="#EF9B45"/>
</svg>
