<svg width="32" height="32" viewBox="0 0 32 32" fill="none" xmlns="http://www.w3.org/2000/svg">
<path d="M23.83 8.45L22.68 6.72C22.7793 6.62791 22.8589 6.51661 22.9139 6.39284C22.9689 6.26908 22.9982 6.13543 23 6C23 5.73478 22.8946 5.48043 22.7071 5.29289C22.5196 5.10536 22.2652 5 22 5H10C9.73478 5 9.48043 5.10536 9.29289 5.29289C9.10536 5.48043 9 5.73478 9 6C9.0018 6.13543 9.03109 6.26908 9.0861 6.39284C9.14111 6.51661 9.22068 6.62791 9.32 6.72L8.17 8.45C8.06065 8.61271 8.00153 8.80397 8 9V24.5C8 26.5 10 28 12.49 28H19.49C22 28 24 26.46 24 24.5V9C23.9985 8.80397 23.9394 8.61271 23.83 8.45Z" fill="#D91F20"/>
<path d="M23.83 8.45L22.68 6.72C22.7793 6.62791 22.8589 6.51661 22.9139 6.39284C22.9689 6.26908 22.9982 6.13543 23 6C23 5.73478 22.8946 5.48043 22.7071 5.29289C22.5196 5.10536 22.2652 5 22 5H10C9.73478 5 9.48043 5.10536 9.29289 5.29289C9.10536 5.48043 9 5.73478 9 6C9.0018 6.13543 9.03109 6.26908 9.0861 6.39284C9.14111 6.51661 9.22068 6.62791 9.32 6.72L8.17 8.45C8.06065 8.61271 8.00153 8.80397 8 9V24.5C8 26.5 10 28 12.49 28H19.49C22 28 24 26.46 24 24.5V9C23.9985 8.80397 23.9394 8.61271 23.83 8.45ZM22 24.5C22 25.21 21 26 19.51 26H12.51C11 26 10 25.21 10 24.5V9.3L11.54 7H20.46L22 9.3V24.5Z" fill="#AD1A22"/>
</svg>
