<svg width="32" height="32" viewBox="0 0 32 32" fill="none" xmlns="http://www.w3.org/2000/svg">
<path d="M25.8 8.99999L26 5.04999C26.0084 4.7778 25.9117 4.51282 25.73 4.30999C25.6359 4.21127 25.5226 4.13284 25.3971 4.07952C25.2715 4.02621 25.1364 3.99915 25 3.99999H7.00002C6.86363 3.99915 6.72851 4.02621 6.60297 4.07952C6.47743 4.13284 6.36412 4.21127 6.27002 4.30999C6.0883 4.51282 5.99162 4.7778 6.00002 5.04999L6.20002 9.04999L25.8 8.99999Z" fill="#ECF0F1"/>
<path d="M6.31 11L7.13 27.05C7.14284 27.3065 7.25383 27.5481 7.44 27.725C7.62616 27.9019 7.87322 28.0003 8.13 28H23.88C24.1368 28.0003 24.3838 27.9019 24.57 27.725C24.7562 27.5481 24.8672 27.3065 24.88 27.05L25.7 11.05L6.31 11Z" fill="#ECF0F1"/>
<path d="M13.21 12.67C13.117 12.5762 13.0064 12.5019 12.8846 12.4511C12.7627 12.4003 12.632 12.3742 12.5 12.3742C12.368 12.3742 12.2373 12.4003 12.1154 12.4511C11.9936 12.5019 11.883 12.5762 11.79 12.67L9.67 14.79C9.57628 14.8829 9.50188 14.9935 9.45111 15.1154C9.40035 15.2373 9.37421 15.368 9.37421 15.5C9.37421 15.632 9.40035 15.7627 9.45111 15.8846C9.50188 16.0064 9.57628 16.117 9.67 16.21L11.79 18.33C11.883 18.4237 11.9936 18.4981 12.1154 18.5489C12.2373 18.5996 12.368 18.6258 12.5 18.6258C12.632 18.6258 12.7627 18.5996 12.8846 18.5489C13.0064 18.4981 13.117 18.4237 13.21 18.33L15.33 16.21C15.4237 16.117 15.4981 16.0064 15.5489 15.8846C15.5997 15.7627 15.6258 15.632 15.6258 15.5C15.6258 15.368 15.5997 15.2373 15.5489 15.1154C15.4981 14.9935 15.4237 14.8829 15.33 14.79L13.21 12.67Z" fill="#99ABD5"/>
<path d="M21 19H18C17.4477 19 17 19.4477 17 20V23C17 23.5523 17.4477 24 18 24H21C21.5523 24 22 23.5523 22 23V20C22 19.4477 21.5523 19 21 19Z" fill="#99ABD5"/>
</svg>
