<svg width="32" height="32" viewBox="0 0 32 32" fill="none" xmlns="http://www.w3.org/2000/svg">
<path d="M19 7.51C18.9993 6.71462 18.6828 5.95207 18.12 5.39C17.5477 4.84699 16.7889 4.54428 16 4.54428C15.2111 4.54428 14.4523 4.84699 13.88 5.39L5.38999 13.88C4.82819 14.4425 4.51263 15.205 4.51263 16C4.51263 16.795 4.82819 17.5575 5.38999 18.12C5.6687 18.3997 5.99988 18.6216 6.36454 18.773C6.72919 18.9244 7.12015 19.0024 7.51499 19.0024C7.90984 19.0024 8.30079 18.9244 8.66545 18.773C9.03011 18.6216 9.36128 18.3997 9.63999 18.12L18.12 9.64C18.3998 9.3605 18.6217 9.02843 18.7727 8.66288C18.9237 8.29733 19.001 7.90552 19 7.51Z" fill="#FFD554"/>
<path d="M26.61 13.88C26.036 13.3363 25.2755 13.0333 24.485 13.0333C23.6944 13.0333 22.9339 13.3363 22.36 13.88L13.88 22.36C13.6003 22.6387 13.3784 22.9699 13.227 23.3346C13.0756 23.6992 12.9976 24.0902 12.9976 24.485C12.9976 24.8799 13.0756 25.2708 13.227 25.6355C13.3784 26.0001 13.6003 26.3313 13.88 26.61C14.4425 27.1718 15.205 27.4874 16 27.4874C16.795 27.4874 17.5575 27.1718 18.12 26.61L26.61 18.12C27.1718 17.5575 27.4873 16.795 27.4873 16C27.4873 15.205 27.1718 14.4425 26.61 13.88Z" fill="#FFD554"/>
<path d="M24.49 7.51001C24.0256 7.04438 23.4738 6.67495 22.8664 6.42289C22.2589 6.17082 21.6077 6.04108 20.95 6.04108C20.2923 6.04108 19.6411 6.17082 19.0337 6.42289C18.4262 6.67495 17.8745 7.04438 17.41 7.51001L7.51002 17.41C6.57115 18.3489 6.0437 19.6223 6.0437 20.95C6.0437 22.2778 6.57115 23.5511 7.51002 24.49C8.44888 25.4289 9.72226 25.9563 11.05 25.9563C12.3778 25.9563 13.6512 25.4289 14.59 24.49L24.49 14.59C24.9557 14.1256 25.3251 13.5738 25.5771 12.9664C25.8292 12.3589 25.959 11.7077 25.959 11.05C25.959 10.3923 25.8292 9.74113 25.5771 9.13368C25.3251 8.52623 24.9557 7.97447 24.49 7.51001Z" fill="#E05C22"/>
<path d="M10.63 21.53C10.4984 21.5308 10.3679 21.5055 10.2461 21.4558C10.1243 21.406 10.0134 21.3327 9.92 21.24C9.82628 21.147 9.75188 21.0364 9.70111 20.9146C9.65035 20.7927 9.62421 20.662 9.62421 20.53C9.62421 20.398 9.65035 20.2673 9.70111 20.1454C9.75188 20.0236 9.82628 19.913 9.92 19.82C10.4818 19.2889 11.2269 18.9951 12 19C12.4 19 12.55 19 12.78 18.72C13.01 18.44 13.03 18.34 13.06 17.94C13.0781 17.1874 13.3862 16.4709 13.92 15.94C14.4485 15.4027 15.1665 15.094 15.92 15.08C16.32 15.08 16.47 15.08 16.71 14.8C16.8111 14.6964 16.8884 14.5722 16.9368 14.4358C16.9851 14.2994 17.0033 14.1541 16.99 14.01C17.0081 13.2574 17.3162 12.5409 17.85 12.01C18.3839 11.4794 19.0978 11.1688 19.85 11.14C20.25 11.14 20.4 11.14 20.63 10.86C20.8183 10.6717 21.0737 10.5659 21.34 10.5659C21.6063 10.5659 21.8617 10.6717 22.05 10.86C22.2383 11.0483 22.3441 11.3037 22.3441 11.57C22.3441 11.8363 22.2383 12.0917 22.05 12.28C21.4806 12.7677 20.7493 13.0246 20 13C19.6 13 19.45 13 19.22 13.28C18.99 13.56 18.97 13.67 18.93 14.07C18.9278 14.8327 18.6293 15.5646 18.0975 16.1113C17.5657 16.658 16.8423 16.9767 16.08 17C15.9359 16.9867 15.7906 17.0049 15.6543 17.0532C15.5179 17.1016 15.3936 17.179 15.29 17.28C15.06 17.52 15.05 17.66 15.01 18.06C15.0153 18.8327 14.7142 19.5761 14.1725 20.1271C13.6308 20.6782 12.8927 20.9921 12.12 21C11.72 21 11.57 21 11.34 21.28C11.1449 21.4526 10.8902 21.5423 10.63 21.53Z" fill="#F3ED86"/>
</svg>
