<svg width="32" height="32" viewBox="0 0 32 32" fill="none" xmlns="http://www.w3.org/2000/svg">
<path d="M25.19 6.81C23.19 4.81 19.38 5.55 17.41 7.51C16.7294 8.19253 16.2606 9.05723 16.06 10H16C15.207 9.99996 14.4219 10.1571 13.69 10.4624C12.9581 10.7677 12.294 11.215 11.736 11.7785C11.1781 12.342 10.7374 13.0106 10.4394 13.7455C10.1414 14.4804 9.99208 15.267 10 16.06C9.05724 16.2606 8.19254 16.7294 7.51001 17.41C5.51001 19.41 4.82001 23.2 6.81001 25.19C7.22773 25.584 7.71948 25.8911 8.25676 26.0937C8.79404 26.2962 9.36617 26.3902 9.94001 26.37C11.6716 26.3518 13.3323 25.6803 14.59 24.49C15.2706 23.8075 15.7394 22.9428 15.94 22C17.5492 22.0025 19.0944 21.37 20.24 20.24C20.8045 19.6763 21.2509 19.0056 21.5531 18.2673C21.8553 17.5289 22.0073 16.7378 22 15.94C22.9428 15.7394 23.8075 15.2706 24.49 14.59C26.45 12.62 27.18 8.8 25.19 6.81Z" fill="#CDA303"/>
<path d="M21 13.05C20.4719 13.0504 19.965 12.8419 19.59 12.47C19.2613 12.144 19.0559 11.714 19.0088 11.2534C18.9617 10.7928 19.0759 10.3301 19.3318 9.94431C19.5878 9.55851 19.9697 9.27346 20.4124 9.13779C20.855 9.00212 21.3311 9.02424 21.7593 9.20038C22.1874 9.37651 22.5413 9.69574 22.7603 10.1036C22.9794 10.5115 23.0502 10.9828 22.9606 11.437C22.871 11.8912 22.6266 12.3003 22.2691 12.5945C21.9115 12.8886 21.463 13.0496 21 13.05Z" fill="#FFCD34"/>
<path d="M16 18C15.5372 18.0019 15.088 17.8433 14.7291 17.5512C14.3701 17.259 14.1236 16.8514 14.0315 16.3979C13.9395 15.9443 14.0076 15.4728 14.2242 15.0639C14.4408 14.6549 14.7926 14.3337 15.2196 14.155C15.6465 13.9764 16.1222 13.9513 16.5655 14.0841C17.0089 14.217 17.3925 14.4994 17.6508 14.8834C17.9092 15.2674 18.0265 15.7291 17.9826 16.1898C17.9386 16.6505 17.7363 17.0818 17.41 17.41C17.0367 17.7856 16.5296 17.9978 16 18Z" fill="#FFCD34"/>
<path d="M11.05 23C10.7215 22.9997 10.3982 22.9186 10.1085 22.7637C9.81881 22.6088 9.57175 22.3849 9.38914 22.1118C9.20653 21.8388 9.09398 21.525 9.06144 21.1981C9.0289 20.8712 9.07738 20.5414 9.20259 20.2377C9.32779 19.934 9.52587 19.6658 9.77932 19.4569C10.0328 19.2479 10.3338 19.1046 10.6558 19.0396C10.9778 18.9745 11.3108 18.9898 11.6255 19.0841C11.9402 19.1784 12.2268 19.3487 12.46 19.58C12.7415 19.8591 12.9336 20.2156 13.012 20.6042C13.0905 20.9927 13.0517 21.3958 12.9006 21.7623C12.7495 22.1288 12.493 22.4421 12.1635 22.6625C11.834 22.8828 11.4464 23.0003 11.05 23Z" fill="#FFCD34"/>
</svg>
