<svg width="32" height="32" viewBox="0 0 32 32" fill="none" xmlns="http://www.w3.org/2000/svg">
<path d="M9 25C12.3137 25 15 22.3137 15 19C15 15.6863 12.3137 13 9 13C5.68629 13 3 15.6863 3 19C3 22.3137 5.68629 25 9 25Z" fill="#F2EEEF"/>
<path d="M23 25C26.3137 25 29 22.3137 29 19C29 15.6863 26.3137 13 23 13C19.6863 13 17 15.6863 17 19C17 22.3137 19.6863 25 23 25Z" fill="#F2EEEF"/>
<path d="M23 22C24.6569 22 26 20.6569 26 19C26 17.3431 24.6569 16 23 16C21.3431 16 20 17.3431 20 19C20 20.6569 21.3431 22 23 22Z" fill="#F9DD42"/>
<path d="M16 15C19.3137 15 22 12.3137 22 9C22 5.68629 19.3137 3 16 3C12.6863 3 10 5.68629 10 9C10 12.3137 12.6863 15 16 15Z" fill="#F2EEEF"/>
<path d="M9 22C10.6569 22 12 20.6569 12 19C12 17.3431 10.6569 16 9 16C7.34315 16 6 17.3431 6 19C6 20.6569 7.34315 22 9 22Z" fill="#F9DD42"/>
<path d="M16 12C17.6569 12 19 10.6569 19 9C19 7.34315 17.6569 6 16 6C14.3431 6 13 7.34315 13 9C13 10.6569 14.3431 12 16 12Z" fill="#F9DD42"/>
<path d="M27 26H5C4.73478 26 4.48043 26.1054 4.29289 26.2929C4.10536 26.4804 4 26.7348 4 27C4 27.2652 4.10536 27.5196 4.29289 27.7071C4.48043 27.8946 4.73478 28 5 28H6V29C6 29.2652 6.10536 29.5196 6.29289 29.7071C6.48043 29.8946 6.73478 30 7 30C7.26522 30 7.51957 29.8946 7.70711 29.7071C7.89464 29.5196 8 29.2652 8 29V28H24V29C24 29.2652 24.1054 29.5196 24.2929 29.7071C24.4804 29.8946 24.7348 30 25 30C25.2652 30 25.5196 29.8946 25.7071 29.7071C25.8946 29.5196 26 29.2652 26 29V28H27C27.2652 28 27.5196 27.8946 27.7071 27.7071C27.8946 27.5196 28 27.2652 28 27C28 26.7348 27.8946 26.4804 27.7071 26.2929C27.5196 26.1054 27.2652 26 27 26Z" fill="#BAC2C5"/>
</svg>
